<?xml version="1.0" encoding="UTF-8"?>
<svg version="1.1" xmlns="http://www.w3.org/2000/svg" width="512" height="512">
<path d="M0 0 C0.70487549 0.00054382 1.40975098 0.00108765 2.13598633 0.00164795 C13.64019402 0.042376 24.47375748 0.91770868 35.5 4.375 C36.17836914 4.58398926 36.85673828 4.79297852 37.55566406 5.00830078 C57.56146362 11.38246365 74.4041261 22.17134116 89.3125 36.8125 C89.91078613 37.39660645 90.50907227 37.98071289 91.12548828 38.58251953 C91.70927246 39.17274902 92.29305664 39.76297852 92.89453125 40.37109375 C93.75612099 41.24172455 93.75612099 41.24172455 94.63511658 42.12994385 C96.5 44.375 96.5 44.375 97.7797699 47.13174438 C99.63951599 50.79377996 101.22670186 52.85177654 104.5 55.375 C111.98126734 57.48926739 120.20400687 56.69345973 127.890625 56.52734375 C130.2013014 56.51910343 132.51200302 56.51630066 134.82269287 56.51869202 C140.89167851 56.51303519 146.95826982 56.44519446 153.02661133 56.36071777 C162.75234581 56.2347698 172.47864213 56.19858526 182.2050705 56.17163277 C185.60248219 56.1525579 188.99852988 56.10407203 192.39556885 56.05149841 C194.47236581 56.03483871 196.54916836 56.01885633 198.62597656 56.00366211 C199.57150391 55.98135025 200.51703125 55.95903839 201.49121094 55.93605042 C205.30141726 55.92735172 207.77004671 55.95835752 211.11672974 57.86857605 C213.13126154 61.51881772 212.79746111 64.82151976 212.50634766 68.84912109 C212.41588366 70.64332592 212.32638005 72.43757936 212.23768616 74.23187256 C212.1564384 75.67055317 212.1564384 75.67055317 212.07354927 77.13829803 C209.05794607 134.05453112 215.32275627 181.72444345 235.45751953 235.10693359 C235.8496378 236.14788177 236.24175608 237.18882996 236.64575672 238.26132202 C238.49041577 243.13326397 240.3709987 247.98374126 242.34214783 252.80596924 C247.55073801 265.77418032 250.44858695 277.35123962 244.7734375 290.875 C242.68651541 294.97202496 240.23103593 298.68359979 237.5 302.375 C236.9225 303.24125 236.345 304.1075 235.75 305 C229.2988061 311.80959356 222.23836953 314.87965219 213.5 318.375 C213.17 360.945 212.84 403.515 212.5 447.375 C223.06 447.375 233.62 447.375 244.5 447.375 C247.87585606 450.75085606 247.87585606 450.75085606 247.88818359 454.43164062 C247.89764008 455.24258179 247.90709656 456.05352295 247.9168396 456.88903809 C247.90773056 458.19693298 247.90773056 458.19693298 247.8984375 459.53125 C247.90130768 460.42992798 247.90417786 461.32860596 247.90713501 462.2545166 C247.90917615 464.15422191 247.90364278 466.0539482 247.89111328 467.95361328 C247.87506021 470.8640841 247.89096013 473.77316621 247.91015625 476.68359375 C247.90817383 478.5286489 247.90433017 480.37370319 247.8984375 482.21875 C247.90451019 483.09067993 247.91058289 483.96260986 247.9168396 484.86096191 C247.90738312 485.67190308 247.89792664 486.48284424 247.88818359 487.31835938 C247.88579681 488.03100952 247.88341003 488.74365967 247.88095093 489.47790527 C247.34966571 492.12364864 246.71688385 492.79794996 244.5 494.375 C241.76373391 494.6691404 239.25516098 494.77735574 236.51795959 494.75252342 C235.27822594 494.75906391 235.27822594 494.75906391 234.01344717 494.76573652 C231.2198205 494.77676075 228.42668042 494.76623758 225.63305664 494.75595093 C223.61970039 494.75940466 221.60634602 494.7641673 219.59299564 494.77013266 C214.04154651 494.7827114 208.49025114 494.77644116 202.93880129 494.76717401 C196.95917983 494.76041188 190.9795856 494.7708506 184.99996948 494.77911377 C173.95665139 494.79171012 162.91337584 494.79058 151.87005743 494.78237936 C141.6691545 494.77484122 131.46826965 494.77285861 121.2673645 494.7764473 C120.25352105 494.77679103 120.25352105 494.77679103 119.21919591 494.77714171 C116.47571328 494.77807568 113.73223066 494.77903087 110.98874805 494.780021 C85.2376826 494.78920393 59.48664857 494.78086822 33.73558797 494.76473031 C10.84291421 494.75049283 -12.04970949 494.75176669 -34.94238281 494.76611328 C-60.64548416 494.78216719 -86.34855773 494.78855275 -112.0516634 494.77927649 C-114.79023043 494.7783143 -117.52879746 494.77737578 -120.2673645 494.7764473 C-120.94170017 494.77621006 -121.61603583 494.77597283 -122.31080591 494.77572841 C-132.5068433 494.77231186 -142.70286065 494.7763145 -152.89889526 494.78388596 C-164.48891235 494.7924495 -176.07888178 494.79005983 -187.66889358 494.77404372 C-193.58714897 494.76613607 -199.50530254 494.76311172 -205.42355728 494.77299118 C-210.83430273 494.78188713 -216.24485131 494.77708998 -221.65557873 494.76105852 C-223.61986124 494.75768897 -225.58416015 494.75945307 -227.54843223 494.76668589 C-230.20518254 494.77572311 -232.86124603 494.76653949 -235.51795959 494.75252342 C-236.67923258 494.76305867 -236.67923258 494.76305867 -237.86396563 494.77380675 C-243.01650015 494.71895282 -243.01650015 494.71895282 -245.47506809 492.96997321 C-246.76802511 490.95790608 -246.88019266 489.70431143 -246.88818359 487.31835938 C-246.89764008 486.50741821 -246.90709656 485.69647705 -246.9168396 484.86096191 C-246.91076691 483.98903198 -246.90469421 483.11710205 -246.8984375 482.21875 C-246.90130768 481.32007202 -246.90417786 480.42139404 -246.90713501 479.4954834 C-246.90917615 477.59577809 -246.90364278 475.6960518 -246.89111328 473.79638672 C-246.87506021 470.8859159 -246.89096013 467.97683379 -246.91015625 465.06640625 C-246.90817383 463.2213511 -246.90433017 461.37629681 -246.8984375 459.53125 C-246.90451019 458.65932007 -246.91058289 457.78739014 -246.9168396 456.88903809 C-246.90738312 456.07809692 -246.89792664 455.26715576 -246.88818359 454.43164062 C-246.88579681 453.71899048 -246.88341003 453.00634033 -246.88095093 452.27209473 C-246.5 450.375 -246.5 450.375 -243.5 447.375 C-232.94 447.375 -222.38 447.375 -211.5 447.375 C-211.83 404.805 -212.16 362.235 -212.5 318.375 C-216.46 316.725 -220.42 315.075 -224.5 313.375 C-235.44128229 305.78046288 -243.58993463 295.61407208 -246.5 282.375 C-248.77278765 267.84984485 -242.76257131 254.39201216 -238.0447998 240.92114258 C-236.9604488 237.81097016 -235.90137633 234.69223953 -234.83984375 231.57421875 C-234.41496674 230.33350113 -233.99008972 229.09278351 -233.55233765 227.81446838 C-232.66305723 225.21605918 -231.78422859 222.61438075 -230.91079712 220.01060486 C-228.69084036 213.44154551 -226.36819917 206.96194077 -223.70893478 200.55622959 C-211.84296074 171.84150134 -210.68487058 145.48200584 -211.30828857 114.65533447 C-211.48631076 105.06770792 -211.53116572 95.47828364 -211.58655167 85.88932228 C-211.61664639 82.57137647 -211.67856793 79.2552728 -211.74655151 75.93791199 C-211.77276791 73.92825951 -211.79852072 71.91860091 -211.82373047 69.90893555 C-211.85075546 68.99655121 -211.87778046 68.08416687 -211.90562439 67.14413452 C-211.93334553 63.46747164 -211.8745392 61.06129456 -210.09490967 57.800354 C-206.03072494 55.56794412 -202.21643985 55.91226863 -197.65771484 56.03540039 C-196.15937607 56.05121658 -196.15937607 56.05121658 -194.63076782 56.06735229 C-192.46119146 56.09150607 -190.29169686 56.12414493 -188.12235641 56.16423225 C-184.68293032 56.2231359 -181.24471717 56.2496908 -177.80484009 56.26597595 C-168.02510846 56.31431848 -158.24666565 56.39075785 -148.46826172 56.56323242 C-142.48497482 56.66643452 -136.50408417 56.70585588 -130.51994705 56.70483208 C-128.24485115 56.71664093 -125.96974502 56.75220919 -123.6954155 56.81242561 C-112.19092706 57.58866975 -112.19092706 57.58866975 -101.58920479 54.10226822 C-98.00732112 50.6789061 -95.83091423 46.70114374 -93.5 42.375 C-91.20819475 39.6342912 -88.7354074 37.12738385 -86.1875 34.625 C-85.54780273 33.99505127 -84.90810547 33.36510254 -84.24902344 32.71606445 C-78.46312848 27.14151657 -72.43711311 22.4664473 -65.5 18.375 C-64.8095459 17.96411133 -64.1190918 17.55322266 -63.40771484 17.12988281 C-51.66628224 10.26471555 -39.74857141 5.47293798 -26.5 2.375 C-25.26540039 2.08568604 -25.26540039 2.08568604 -24.00585938 1.79052734 C-16.03636537 0.12947653 -8.11697072 -0.02358753 0 0 Z " fill="#010101" transform="translate(255.5,8.625)"/>
<path d="M0 0 C2.48844275 1.94445759 4.88428563 3.96193095 7.26953125 6.03125 C8.089375 6.70671875 8.90921875 7.3821875 9.75390625 8.078125 C29.50543439 24.88532596 42.25598258 50.41156149 45.26953125 76.03125 C47.42861121 106.26813899 40.61160724 135.597657 20.64453125 159.09375 C18.87928201 161.0997423 17.08119898 163.06628731 15.26953125 165.03125 C14.69976562 165.68222656 14.13 166.33320313 13.54296875 167.00390625 C0.65918797 180.97785309 -17.57862986 190.18357789 -35.73046875 195.03125 C-36.73924072 195.30791504 -37.7480127 195.58458008 -38.78735352 195.86962891 C-46.60467706 197.86180645 -53.92897284 198.50716348 -61.98046875 198.40625 C-63.15633545 198.39682373 -64.33220215 198.38739746 -65.54370117 198.37768555 C-95.38212129 197.86375956 -120.93484557 186.02135646 -142.48046875 165.71875 C-162.76237622 144.53375203 -172.76351747 117.49980928 -172.98046875 88.46875 C-172.98997559 87.42775146 -172.99948242 86.38675293 -173.00927734 85.31420898 C-172.9651143 74.93180499 -171.46074254 65.05016649 -168.10546875 55.21875 C-167.84677002 54.45739746 -167.58807129 53.69604492 -167.3215332 52.91162109 C-162.85168035 40.27181936 -156.22319537 29.39823353 -147.73046875 19.03125 C-147.0446875 18.18046875 -146.35890625 17.3296875 -145.65234375 16.453125 C-129.05521761 -3.09460134 -106.39051145 -13.83470429 -81.73046875 -18.96875 C-80.80492187 -19.16597656 -79.879375 -19.36320312 -78.92578125 -19.56640625 C-51.03102283 -23.07882693 -22.84767739 -16.47386181 0 0 Z " fill="#F2F4F6" transform="translate(319.73046875,42.96875)"/>
<path d="M0 0 C0.66 0 1.32 0 2 0 C3.05014305 1.31566217 4.03976399 2.67985248 5 4.0625 C11.99352548 13.31435142 22.53409505 19.26389792 34 21 C48.09470499 22.25411054 61.06242862 18.26350448 72.25 9.625 C74.47355706 7.50251371 76.02622228 5.67795792 77.75 3.1875 C78.4925 2.135625 79.235 1.08375 80 0 C80.66 0 81.32 0 82 0 C83.05014305 1.31566217 84.03976399 2.67985248 85 4.0625 C91.99352548 13.31435142 102.53409505 19.26389792 114 21 C128.09470499 22.25411054 141.06242862 18.26350448 152.25 9.625 C154.47355706 7.50251371 156.02622228 5.67795792 157.75 3.1875 C158.86375 1.6096875 158.86375 1.6096875 160 0 C160.66 0 161.32 0 162 0 C163.05014305 1.31566217 164.03976399 2.67985248 165 4.0625 C171.99352548 13.31435142 182.53409505 19.26389792 194 21 C208.09470499 22.25411054 221.06242862 18.26350448 232.25 9.625 C234.47355706 7.50251371 236.02622228 5.67795792 237.75 3.1875 C238.86375 1.6096875 238.86375 1.6096875 240 0 C240.66 0 241.32 0 242 0 C243.05014305 1.31566217 244.03976399 2.67985248 245 4.0625 C251.99352548 13.31435142 262.53409505 19.26389792 274 21 C288.09470499 22.25411054 301.06242862 18.26350448 312.25 9.625 C314.47355706 7.50251371 316.02622228 5.67795792 317.75 3.1875 C318.86375 1.6096875 318.86375 1.6096875 320 0 C320.66 0 321.32 0 322 0 C323.05014305 1.31566217 324.03976399 2.67985248 325 4.0625 C332.74985767 14.31491587 343.07411162 18.80948973 355.5234375 20.5703125 C358 21 358 21 359 22 C359.09611419 23.6575762 359.12187755 25.31926986 359.12025452 26.97962952 C359.12231651 28.59720909 359.12231651 28.59720909 359.12442017 30.24746704 C359.12082489 31.4407663 359.11722961 32.63406555 359.11352539 33.86352539 C359.11367142 35.11212845 359.11381744 36.36073151 359.1139679 37.64717102 C359.11338891 41.08090994 359.10835955 44.51458938 359.10139394 47.94831777 C359.09515998 51.53312459 359.09455657 55.11793213 359.09336853 58.70274353 C359.09025534 65.49550045 359.08204212 72.28824135 359.07201904 79.08099121 C359.06085753 86.81242494 359.05534736 94.54385942 359.05032361 102.27529919 C359.03985949 118.18354366 359.02151416 134.09176606 359 150 C345.47 150 331.94 150 318 150 C317.95101563 146.90238281 317.90203125 143.80476562 317.8515625 140.61328125 C317.79735952 137.57148931 317.74012841 134.5297681 317.68261719 131.48803711 C317.64462902 129.39434202 317.60972706 127.30058833 317.578125 125.20678711 C317.16142186 97.93226453 313.2425981 76.04184506 293 56 C282.31752957 46.01621094 269.17273515 39.39607651 255 36 C254.30156982 35.82484863 253.60313965 35.64969727 252.88354492 35.46923828 C228.25930522 29.83293962 201.60973884 33.7035529 180.22070312 47.11572266 C176.62478395 49.52733823 173.2873365 52.18727895 170 55 C169.27554688 55.61230469 168.55109375 56.22460938 167.8046875 56.85546875 C153.87437465 69.66589371 145.79610733 88.86898437 144.87472534 107.5383606 C144.79119295 110.26639527 144.73222141 112.99377876 144.68359375 115.72265625 C144.6524221 117.20178749 144.6524221 117.20178749 144.62062073 118.71080017 C144.55579082 121.82796985 144.49655316 124.94521608 144.4375 128.0625 C144.39425131 130.1894607 144.35063511 132.31641397 144.30664062 134.44335938 C144.19949446 139.62882936 144.09992817 144.81436592 144 150 C132.78 150 121.56 150 110 150 C109.96261719 145.01390625 109.92523438 140.0278125 109.88671875 134.890625 C109.85640075 131.70960253 109.82522801 128.52863343 109.79101562 125.34765625 C109.73693272 120.31171545 109.68581501 115.27588022 109.65356445 110.23974609 C109.62732925 106.17411895 109.58678859 102.10885154 109.53681374 98.0434494 C109.52028036 96.50156927 109.50868267 94.95962712 109.50238609 93.4176712 C109.43014933 77.3363585 106.51770749 63.8418214 96.75 50.6875 C83.96737154 38.19538582 70.9479718 33.67347519 53.51660156 33.61499023 C38.79686012 33.83886003 27.45593589 40.12989592 17.25 50.625 C9.01184761 60.19000525 4.81176776 72.07029485 4.68115234 84.609375 C4.66608391 85.6791433 4.66608391 85.6791433 4.65071106 86.77052307 C4.62014456 89.09700815 4.60291891 91.42337963 4.5859375 93.75 C4.56720441 95.3752539 4.54762943 97.0004983 4.5272522 98.62573242 C4.47615094 102.88021208 4.43640819 107.1347232 4.39910889 111.38934326 C4.35185245 116.50655762 4.29034982 121.6236186 4.23126221 126.7407074 C4.14331853 134.49374226 4.07336241 142.24675173 4 150 C-9.53 150 -23.06 150 -37 150 C-37 107.43 -37 64.86 -37 21 C-33.04 20.34 -29.08 19.68 -25 19 C-21.02385724 17.55663618 -21.02385724 17.55663618 -17.625 15.6875 C-16.50351563 15.11386719 -15.38203125 14.54023438 -14.2265625 13.94921875 C-9.45100063 11.06422435 -5.28842398 7.96365276 -2.25 3.1875 C-1.5075 2.135625 -0.765 1.08375 0 0 Z " fill="#E1E5E8" transform="translate(95,306)"/>
<path d="M0 0 C153.78 0 307.56 0 466 0 C466 6.27 466 12.54 466 19 C312.22 19 158.44 19 0 19 C0 12.73 0 6.46 0 0 Z " fill="#A8AFBA" transform="translate(23,470)"/>
<path d="M0 0 C8.51139415 5.18383779 14.92395498 12.85771136 18.36517334 22.26783752 C19.85055259 28.66060219 19.35901972 35.4395035 19.29296875 41.96875 C19.28855085 43.43000953 19.28549466 44.89127382 19.28381348 46.35253906 C19.2681665 51.73509904 19.22628269 57.117557 19.1875 62.5 C19.125625 74.545 19.06375 86.59 19 99 C-6.41 99 -31.82 99 -58 99 C-58.103125 87.2025 -58.20625 75.405 -58.3125 63.25 C-58.35802002 59.54813477 -58.40354004 55.84626953 -58.45043945 52.03222656 C-58.47302246 47.45263672 -58.47302246 47.45263672 -58.47721863 45.29730225 C-58.48481221 43.81691942 -58.50221938 42.3365642 -58.52787781 40.85638428 C-58.75548257 27.01398475 -56.28977422 16.42822723 -46.40234375 6.1953125 C-33.83783771 -5.28639871 -15.32873312 -8.45463676 0 0 Z " fill="#D4A788" transform="translate(171,357)"/>
<path d="M0 0 C28.71 0 57.42 0 87 0 C87 29.37 87 58.74 87 89 C60.6 89 34.2 89 7 89 C7.66 85.7 8.32 82.4 9 79 C14.58103542 50.85428003 9.93460453 26.49227874 0 0 Z " fill="#E2E5E8" transform="translate(367,79)"/>
<path d="M0 0 C28.71 0 57.42 0 87 0 C84.69 6.27 82.38 12.54 80 19 C74.16681689 40.38833807 74.25978127 62.36200674 79 84 C79.33 85.65 79.66 87.3 80 89 C53.6 89 27.2 89 0 89 C0 59.63 0 30.26 0 0 Z " fill="#E2E6E9" transform="translate(58,79)"/>
<path d="M0 0 C17.16 0 34.32 0 52 0 C51.36662764 6.3337236 50.67900536 12.34569476 49.43359375 18.5390625 C49.27899689 19.32739471 49.12440002 20.11572693 48.96511841 20.927948 C48.46052908 23.49456795 47.94923587 26.05979622 47.4375 28.625 C47.08228497 30.42116151 46.72739113 32.21738656 46.37280273 34.01367188 C45.63255292 37.75870618 44.88916247 41.50309919 44.14355469 45.24707031 C43.18512393 50.0621756 42.23546701 54.87896164 41.28874207 59.69638062 C40.55884808 63.40740308 39.82535883 67.11770811 39.09085083 70.82781982 C38.73888572 72.60791392 38.38803346 74.38822841 38.03829956 76.16876221 C37.55139819 78.64451515 37.059586 81.11924124 36.56640625 83.59375 C36.34973801 84.70325516 36.34973801 84.70325516 36.12869263 85.83517456 C35.1142688 90.8857312 35.1142688 90.8857312 34 92 C32.0056827 92.09405142 30.00800457 92.11743249 28.01147461 92.11352539 C26.73022202 92.11344986 25.44896942 92.11337433 24.12889099 92.11329651 C22.72004152 92.10818909 21.31119244 92.10297309 19.90234375 92.09765625 C18.46887766 92.09579202 17.03541093 92.09436814 15.60194397 92.09336853 C11.82240043 92.08954372 8.0428951 92.07971377 4.2633667 92.06866455 C0.40930702 92.05844963 -3.44475882 92.05387074 -7.29882812 92.04882812 C-14.86590287 92.03809146 -22.43294609 92.02101549 -30 92 C-28.7804411 86.05214114 -27.2516457 80.32508827 -25.31030273 74.57446289 C-25.04827057 73.78632202 -24.7862384 72.99818115 -24.51626587 72.18615723 C-23.65971283 69.61351977 -22.7967805 67.04307471 -21.93359375 64.47265625 C-21.33315042 62.67438771 -20.7330635 60.87600013 -20.13331604 59.07749939 C-18.88108871 55.32540112 -17.6259355 51.57429984 -16.3684082 47.82397461 C-14.75464659 43.0111054 -13.14617126 38.19649103 -11.5395956 33.38121891 C-10.30304429 29.67571352 -9.0647954 25.97077742 -7.82591438 22.26605034 C-7.23195528 20.48987605 -6.6382794 18.71360702 -6.04488945 16.93724251 C-5.2182663 14.46422337 -4.3896153 11.99189375 -3.56030273 9.51977539 C-3.31457016 8.78369553 -3.06883759 8.04761566 -2.81565857 7.28923035 C-1.11470535 2.22941071 -1.11470535 2.22941071 0 0 Z " fill="#65D2EE" transform="translate(56,182)"/>
<path d="M0 0 C17.16 0 34.32 0 52 0 C59.3250438 21.36471109 66.62282031 42.7376455 73.79541016 64.15405273 C74.51520321 66.30154927 75.23655804 68.44852297 75.95947266 70.5949707 C76.97482357 73.61132525 77.98430395 76.62958096 78.9921875 79.6484375 C79.45055496 81.00508011 79.45055496 81.00508011 79.91818237 82.38912964 C80.19381012 83.21897369 80.46943787 84.04881775 80.75341797 84.90380859 C81.11643509 85.98739151 81.11643509 85.98739151 81.48678589 87.09286499 C82 89 82 89 82 92 C60.88 92 39.76 92 18 92 C16.7758701 88.32761031 15.74065659 85.20124007 15.02612305 81.49291992 C14.86205963 80.652285 14.69799622 79.81165009 14.52896118 78.94554138 C14.27292618 77.60158043 14.27292618 77.60158043 14.01171875 76.23046875 C13.82813812 75.28466446 13.6445575 74.33886017 13.45541382 73.36439514 C12.86251711 70.30611267 12.27503713 67.24681616 11.6875 64.1875 C11.28163239 62.09007947 10.87530005 59.99274883 10.46850586 57.89550781 C9.86510869 54.78459756 9.26193254 51.67364745 8.66023254 48.56240845 C7.15598295 40.78581128 5.62395137 33.01533868 4.0625 25.25 C3.87582764 24.32082764 3.68915527 23.39165527 3.49682617 22.43432617 C3.3238501 21.57427979 3.15087402 20.7142334 2.97265625 19.828125 C2.81297363 19.02955078 2.65329102 18.23097656 2.48876953 17.40820312 C2.14457705 15.71234167 1.79046762 14.0184779 1.42919922 12.32617188 C1.15293701 11.01229492 1.15293701 11.01229492 0.87109375 9.671875 C0.70407959 8.89424805 0.53706543 8.11662109 0.36499023 7.31542969 C0 5 0 5 0 0 Z " fill="#F46B80" transform="translate(404,182)"/>
<path d="M0 0 C6.93 0 13.86 0 21 0 C25.14722099 16.74508815 28.61758193 33.58343203 31.93139648 50.5078125 C32.67277316 54.29358333 33.42235602 58.07767884 34.17409229 61.86140442 C34.758254 64.80670426 35.33795663 67.75286817 35.91632652 70.6993103 C36.19119782 72.0965886 36.46749169 73.49358787 36.74527931 74.89028931 C37.1300869 76.8283011 37.50818407 78.76764164 37.88598633 80.70703125 C38.10184891 81.8050708 38.31771149 82.90311035 38.54011536 84.03442383 C39 87 39 87 39 92 C17.55 92 -3.9 92 -26 92 C-26.66 84.678125 -27.32 77.35625 -28 69.8125 C-28.20882813 67.50870361 -28.41765625 65.20490723 -28.6328125 62.83129883 C-28.79705083 60.99822538 -28.96112444 59.16513716 -29.125 57.33203125 C-29.21136719 56.38598022 -29.29773438 55.4399292 -29.38671875 54.46520996 C-29.46792969 53.55219116 -29.54914063 52.63917236 -29.6328125 51.69848633 C-29.70387207 50.91016922 -29.77493164 50.12185211 -29.84814453 49.30964661 C-30.30320841 42.38835002 -30.30320841 42.38835002 -28.63671875 40.25390625 C-27.99347656 39.69574219 -27.35023438 39.13757813 -26.6875 38.5625 C-14.99234539 27.52972583 -7.13789258 14.27578517 0 0 Z " fill="#64D1EE" transform="translate(368,182)"/>
<path d="M0 0 C6.93 0 13.86 0 21 0 C22.299375 2.5575 23.59875 5.115 24.9375 7.75 C30.59614073 18.57711412 39.65609105 35.32804553 51 41 C50.3612266 58.09269518 48.6005092 74.92790188 47 92 C25.55 92 4.1 92 -18 92 C-17.37968831 85.17657146 -16.73603511 78.79994657 -15.36328125 72.16015625 C-15.20330658 71.3632135 -15.04333191 70.56627075 -14.87850952 69.74517822 C-14.36242148 67.18304652 -13.83778378 64.62276074 -13.3125 62.0625 C-12.95061426 60.27830249 -12.58904508 58.49404074 -12.2277832 56.7097168 C-8.37869691 37.75613169 -4.37904085 18.83886488 0 0 Z " fill="#F46A80" transform="translate(123,182)"/>
<path d="M0 0 C2.6928951 2.10695966 3.86776726 3.29570373 4.50615788 6.69589138 C4.5089648 7.73286695 4.51177172 8.76984251 4.5146637 9.83824158 C4.52738815 11.03132431 4.54011261 12.22440704 4.55322266 13.4536438 C4.54669678 14.75921234 4.5401709 16.06478088 4.53344727 17.40991211 C4.54050606 18.80139583 4.54925091 20.19287186 4.55955505 21.58433533 C4.58206457 25.36129896 4.57910578 29.13784386 4.57023358 32.91484904 C4.56512456 36.06848896 4.57241558 39.22205013 4.57970566 42.37568194 C4.59670982 49.8158729 4.59313397 57.25585879 4.57641602 64.69604492 C4.55949475 72.37042221 4.57532768 80.0442307 4.6076389 87.71854585 C4.63433467 94.30892646 4.64161086 100.89912999 4.63312382 107.48955923 C4.62819439 111.42509779 4.63041057 115.36029411 4.65091133 119.29578972 C4.66926857 122.99702384 4.66331055 126.69743997 4.63871193 130.39863014 C4.63131748 132.40270379 4.6485594 134.40682096 4.66653442 136.41082764 C4.56292266 146.20298475 4.56292266 146.20298475 1.62071228 149.31105042 C-1 151 -1 151 -3.5625 151.5625 C-6.80988628 150.81310317 -7.91644373 149.57603877 -10 147 C-10.45169067 144.39541626 -10.45169067 144.39541626 -10.38720703 141.40869141 C-10.37464874 140.28717682 -10.36209045 139.16566223 -10.34915161 138.01016235 C-10.3190097 136.8028244 -10.2888678 135.59548645 -10.2578125 134.3515625 C-10.24306686 131.7942802 -10.23010118 129.23698712 -10.21875 126.6796875 C-10.18396379 122.64776297 -10.1277903 118.61701984 -10.03808594 114.5859375 C-9.96288087 110.69431324 -9.94980685 106.80632305 -9.9453125 102.9140625 C-9.90302521 101.71077301 -9.86073792 100.50748352 -9.81716919 99.26773071 C-9.83617451 95.89469257 -9.94306049 93.20592663 -11 90 C-14.02139973 87.17808495 -17.25249092 85.66198503 -21 84 C-28.73553941 77.84648205 -34.59297342 69.96288521 -36 60 C-36.5715499 49.90783802 -36.28986301 39.86959944 -34 30 C-33.81695312 29.15308594 -33.63390625 28.30617188 -33.4453125 27.43359375 C-30.53513667 15.95456688 -23.85272775 7.67231437 -14.25 1.125 C-9.59348459 -0.48687072 -4.86232445 -0.93280242 0 0 Z " fill="#040404" transform="translate(306,57)"/>
<path d="M0 0 C3.74560037 0.70230007 4.71546212 1.53475557 7 4.5625 C7.40623494 7.27834244 7.58144778 9.60513582 7.57421875 12.3203125 C7.58838333 13.06457489 7.60254791 13.80883728 7.61714172 14.57565308 C7.65898092 16.94641669 7.67427121 19.31641945 7.6875 21.6875 C7.71655696 24.06536806 7.75108503 26.44304366 7.78999329 28.82077026 C7.81247833 30.29864802 7.82829923 31.77664506 7.83683777 33.25466919 C7.81502472 37.03429126 7.81502472 37.03429126 9 40.5625 C9.0093457 39.49290039 9.01869141 38.42330078 9.02832031 37.32128906 C9.06823512 33.3475603 9.13399721 29.37460456 9.20751953 25.40136719 C9.23572067 23.68271831 9.25693954 21.96393995 9.27099609 20.24511719 C9.29243833 17.77211253 9.33909156 15.30066325 9.390625 12.828125 C9.39185364 12.06131409 9.39308228 11.29450317 9.39434814 10.50445557 C9.49062294 6.98693435 9.72263732 4.93500027 11.85058594 2.07714844 C14.79355985 0.00329449 16.47509055 -0.02498491 20 0.5625 C22.14941406 2.09082031 22.14941406 2.09082031 24 4.5625 C24.41786702 7.36946003 24.60474313 9.80101941 24.609375 12.609375 C24.63417938 13.76617767 24.63417938 13.76617767 24.65948486 14.9463501 C24.70794593 17.40181454 24.72933037 19.85665984 24.75 22.3125 C24.77816146 23.98049987 24.80808914 25.64847092 24.83984375 27.31640625 C24.91370372 31.3983865 24.96328936 35.48002345 25 39.5625 C26.51735377 36.52779245 26.15662754 33.36509939 26.17578125 30.03515625 C26.19897472 28.50584554 26.22309186 26.97654861 26.24804688 25.44726562 C26.28320451 23.03319005 26.31252984 20.61962306 26.32592773 18.20532227 C26.3413808 15.8771401 26.3815635 13.55044631 26.42578125 11.22265625 C26.42387283 10.50070572 26.42196442 9.77875519 26.41999817 9.03492737 C26.49908023 5.80265646 26.58853715 4.01241111 28.81323242 1.57983398 C32.18426151 0.01155463 34.48054608 0.60264893 38 1.5625 C40.54048114 3.97195662 40.98032251 5.39316217 41.38818359 8.90307617 C41.39156738 10.20736572 41.39495117 11.51165527 41.3984375 12.85546875 C41.40130768 13.56093338 41.40417786 14.26639801 41.40713501 14.99324036 C41.40917289 16.48516645 41.40366221 17.97711943 41.39111328 19.46899414 C41.37517378 21.72539957 41.39090709 23.97998113 41.41015625 26.23632812 C41.42341689 35.09818055 41.30094916 43.46769013 35.75 50.875 C32.58363223 53.96940487 28.67054459 57.5625 24 57.5625 C24.00888245 58.71872864 24.01776489 59.87495728 24.0269165 61.06622314 C24.10795223 71.95486951 24.16794138 82.84345481 24.20724869 93.73233414 C24.22813628 99.33063561 24.25647564 104.92869394 24.30175781 110.52685547 C24.34517327 115.92794947 24.36912828 121.32880938 24.37950897 126.73006439 C24.38690804 128.79220007 24.40135647 130.85432274 24.42292023 132.91635895 C24.45189678 135.80161876 24.45595838 138.68590749 24.45410156 141.57128906 C24.46848267 142.42652664 24.48286377 143.28176422 24.49768066 144.16291809 C24.45741307 149.93368404 24.45741307 149.93368404 22.15911865 153.09320068 C19.20326263 155.10468682 17.503727 155.1464545 14 154.5625 C11.59445403 152.92550472 10.20673182 151.63466663 9.6427536 148.70972443 C9.50580527 146.32100895 9.50566966 143.96367606 9.54589844 141.57128906 C9.54531433 140.66362289 9.54473022 139.75595673 9.54412842 138.82078552 C9.54691351 135.82284199 9.5780258 132.82589468 9.609375 129.828125 C9.61683587 127.74876448 9.62252953 125.66939692 9.62652588 123.59002686 C9.64179425 118.11867846 9.68108674 112.6477552 9.7253418 107.17657471 C9.76626837 101.59303539 9.78453133 96.00942734 9.8046875 90.42578125 C9.84757957 79.47116744 9.91584571 68.51686908 10 57.5625 C9.07316406 57.27375 8.14632812 56.985 7.19140625 56.6875 C0.4297382 54.30394994 -2.9139674 50.0704027 -5.95043945 43.79931641 C-7.92444902 37.71152416 -7.69881815 31.47618042 -7.59692383 25.12915039 C-7.56230634 22.73661535 -7.57638591 20.3477236 -7.59570312 17.95507812 C-7.58881102 16.42185939 -7.57914439 14.88865006 -7.56640625 13.35546875 C-7.57136612 12.64706345 -7.57632599 11.93865814 -7.58143616 11.20878601 C-7.49729102 7.65903864 -7.05130145 5.64445082 -5.15209961 2.6105957 C-3 0.5625 -3 0.5625 0 0 Z " fill="#030303" transform="translate(209,54.4375)"/>
<path d="M0 0 C21.78 0 43.56 0 66 0 C66 13.2 66 26.4 66 40 C44.22 40 22.44 40 0 40 C0 26.8 0 13.6 0 0 Z " fill="#A2D2FD" transform="translate(333,416)"/>
<path d="M0 0 C21.78 0 43.56 0 66 0 C66 13.2 66 26.4 66 40 C44.22 40 22.44 40 0 40 C0 26.8 0 13.6 0 0 Z " fill="#A2D2FD" transform="translate(253,416)"/>
<path d="M0 0 C0 16.17 0 32.34 0 49 C-20.79 49 -41.58 49 -63 49 C-60.85555417 33.98887922 -52.02522501 23.66380747 -40.6875 14.1875 C-28.71612051 5.45393133 -14.82919939 0 0 0 Z " fill="#A3D2FD" transform="translate(319,353)"/>
<path d="M0 0 C13.98333446 1.16527787 13.98333446 1.16527787 20.625 3.6875 C21.35082275 3.9558667 22.07664551 4.2242334 22.82446289 4.50073242 C33.21936731 8.47003346 41.07117235 14.21849854 49 22 C49.639375 22.61488281 50.27875 23.22976563 50.9375 23.86328125 C57.26647253 30.46067002 63 39.77954575 63 49 C42.21 49 21.42 49 0 49 C0 32.83 0 16.66 0 0 Z " fill="#A3D3FD" transform="translate(333,353)"/>
<path d="M0 0 C3.59080888 1.39981988 6.99479708 2.98997146 10.41674805 4.7668457 C26.94712359 13.32062104 43.56481836 17.57921857 62 20 C62 26.27 62 32.54 62 39 C40.55 39 19.1 39 -3 39 C-3 25.5 -3 25.5 -2.34375 19.921875 C-2.14072266 18.15263672 -2.14072266 18.15263672 -1.93359375 16.34765625 C-1.79050781 15.16042969 -1.64742187 13.97320312 -1.5 12.75 C-1.35691406 11.51636719 -1.21382812 10.28273437 -1.06640625 9.01171875 C-0.71702533 6.00704286 -0.36146572 3.00324178 0 0 Z " fill="#64CFEC" transform="translate(187,235)"/>
<path d="M0 0 C1.69116755 13.08602465 3 25.74421128 3 39 C-18.45 39 -39.9 39 -62 39 C-62 32.73 -62 26.46 -62 20 C-57.6996875 19.4740625 -57.6996875 19.4740625 -53.3125 18.9375 C-36.4207436 16.55419822 -15.02314692 0 0 0 Z " fill="#F2697F" transform="translate(325,235)"/>
<path d="M0 0 C21.12 0 42.24 0 64 0 C59.87902172 12.36293483 55.42560105 17.95397115 44.06640625 24.03515625 C37.30236826 27.0585828 29.91318258 27.08968574 22.84375 25.12109375 C11.73197655 20.8699986 6.07961071 15.27513228 1.03125 4.57421875 C0 2 0 2 0 0 Z " fill="#4EBDE5" transform="translate(184,288)"/>
<path d="M0 0 C21.12 0 42.24 0 64 0 C60.25000059 11.24999823 56.4920136 17.39611254 46 23 C38.54813663 26.52004241 30.88323185 27.39079388 22.9140625 25.12109375 C11.7555394 20.86286642 6.10230569 15.32323838 1.03125 4.57421875 C0 2 0 2 0 0 Z " fill="#E85362" transform="translate(424,288)"/>
<path d="M0 0 C21.12 0 42.24 0 64 0 C60.25000059 11.24999823 56.4920136 17.39611254 46 23 C38.54813663 26.52004241 30.88323185 27.39079388 22.9140625 25.12109375 C11.7555394 20.86286642 6.10230569 15.32323838 1.03125 4.57421875 C0 2 0 2 0 0 Z " fill="#4EBEE5" transform="translate(344,288)"/>
<path d="M0 0 C21.12 0 42.24 0 64 0 C60.25000059 11.24999823 56.4920136 17.39611254 46 23 C38.54813663 26.52004241 30.88323185 27.39079388 22.9140625 25.12109375 C11.7555394 20.86286642 6.10230569 15.32323838 1.03125 4.57421875 C0 2 0 2 0 0 Z " fill="#E85362" transform="translate(264,288)"/>
<path d="M0 0 C21.12 0 42.24 0 64 0 C60.25000059 11.24999823 56.4920136 17.39611254 46 23 C38.54813663 26.52004241 30.88323185 27.39079388 22.9140625 25.12109375 C11.7555394 20.86286642 6.10230569 15.32323838 1.03125 4.57421875 C0 2 0 2 0 0 Z " fill="#E85362" transform="translate(104,288)"/>
<path d="M0 0 C21.12 0 42.24 0 64 0 C60.25000059 11.24999823 56.4920136 17.39611254 46 23 C38.54813663 26.52004241 30.88323185 27.39079388 22.9140625 25.12109375 C11.7555394 20.86286642 6.10230569 15.32323838 1.03125 4.57421875 C0 2 0 2 0 0 Z " fill="#4EBEE5" transform="translate(24,288)"/>
<path d="M0 0 C0.33 0 0.66 0 1 0 C1 19.14 1 38.28 1 58 C-5.8811177 53.4125882 -8.82293761 49.85231048 -11 42 C-12.1269416 29.44639479 -11.56486883 14.56088863 -3.8125 4.0625 C-2.58391201 2.64729104 -1.32334143 1.32334143 0 0 Z " fill="#BEC4CB" transform="translate(295,73)"/>
</svg>
